<svg width="82" height="83" viewBox="0 0 82 83" fill="none" xmlns="http://www.w3.org/2000/svg">
<path d="M47.4774 32.6488C47.4774 29.0662 45.2566 27.0885 41.3559 27.0885H34.1809V38.6307H40.2312C44.9007 38.6145 47.4774 36.4746 47.4774 32.6488ZM73.6007 30.5738C72.2483 25.5646 72.049 19.4207 72.2056 14.6709C72.3622 9.72656 68.974 5.1875 64.4184 5.1875H17.6101C13.0403 5.1875 9.66631 9.74277 9.82291 14.6709C9.96527 19.4207 9.7802 25.5646 8.42777 30.5738C7.0611 35.5992 4.76909 38.7766 0.996521 39.1818V43.802C4.75485 44.2072 7.0611 47.3846 8.42777 52.41C9.7802 57.4191 9.97951 63.5631 9.82291 68.3129C9.66631 73.2572 13.0545 77.7963 17.6101 77.7963H64.4042C68.974 77.7963 72.3479 73.241 72.1913 68.3129C72.049 63.5631 72.234 57.4191 73.5865 52.41C74.9531 47.3846 77.2451 44.2072 81.0035 43.802V39.1818C77.2594 38.7766 74.9531 35.5992 73.6007 30.5738ZM42.7368 60.8072H28.7996V22.1766H42.6656C48.8299 22.1766 52.8729 25.9699 52.8729 31.8059C52.8729 35.9072 50.1538 39.5709 46.6802 40.2031V40.4139C51.4066 40.9975 54.5812 44.726 54.5812 49.8648C54.5812 56.6896 50.1253 60.8072 42.7368 60.8072ZM41.3132 43.1859H34.1809V55.8953H41.6264C46.4951 55.8953 49.0719 53.6744 49.0719 49.492C49.0719 45.3258 46.424 43.1859 41.3132 43.1859Z" fill="#FFFBFB"/>
</svg>
