<svg width="135" height="50" viewBox="0 0 135 50" fill="none" xmlns="http://www.w3.org/2000/svg">
<path fill-rule="evenodd" clip-rule="evenodd" d="M10.1703 24.4806C10.1479 29.0348 13.269 31.7497 18.2495 30.5154V18.4459C13.206 16.8025 10.1914 20.1273 10.1703 24.4806ZM18.4019 0.993835H25.2616V35.7346C18.6863 36.8848 12.3889 37.6143 7.88374 34.919C2.08296 31.4489 1.61662 20.4214 6.20679 15.51C8.53408 13.0201 13.2193 11.2671 18.2495 12.411V1.48325C18.2364 1.25165 18.2242 1.02109 18.4019 0.993835" fill="white"/>
<path fill-rule="evenodd" clip-rule="evenodd" d="M36.3896 8.65957H29.5299V0.993774H36.3896V8.65957V8.65957Z" fill="white"/>
<path fill-rule="evenodd" clip-rule="evenodd" d="M118.706 30.8415C126.184 33.9509 127.011 16.52 119.468 18.1195C114.784 19.1129 114.934 29.2733 118.706 30.8415ZM119.011 12.0847C124.722 11.4314 129.03 14.1278 130.749 18.2826C133.681 25.3717 130.587 33.5061 125.871 35.8977C123.426 37.1373 120.866 37.2554 118.554 37.0394C111.405 36.3724 106.897 28.578 109.407 19.9136C109.8 18.5575 110.241 17.728 110.474 17.304C112.028 14.4773 114.652 12.5835 119.011 12.0847" fill="white"/>
<path fill-rule="evenodd" clip-rule="evenodd" d="M45.8408 28.0688C43.9435 31.4804 48.7105 32.2978 51.7857 31.3309V26.2747C49.4228 26.6276 46.7334 26.4634 45.8408 28.0688ZM57.8832 36.0608C52.2168 36.4096 43.6054 38.4749 40.5054 34.4299C38.6842 32.0531 38.88 27.52 40.5054 25.296C42.6058 22.4224 47.191 21.7957 51.3284 21.3816C51.7041 20.392 51.4508 18.782 51.0235 18.1193C47.239 17.0879 43.4788 18.6861 40.8104 19.9134V14.2051C44.8406 12.2238 54.1757 10.1377 56.9687 14.6943C58.4355 17.0875 57.8832 21.2613 57.8832 24.9696V36.0608V36.0608Z" fill="white"/>
<path fill-rule="evenodd" clip-rule="evenodd" d="M81.9685 36.3872H75.1088V26.9271C75.1088 23.8124 75.5797 19.8629 74.0415 18.6089C72.8369 17.6263 69.979 18.1193 68.2492 18.6089V36.3872H61.3893V13.7159C68.4017 11.7669 81.0594 9.6773 81.9685 19.0981C82.4168 23.7429 81.6364 30.7115 81.9685 36.3872" fill="white"/>
<path fill-rule="evenodd" clip-rule="evenodd" d="M92.1818 28.5581C93.3361 30.5564 96.4619 31.3057 99.0414 30.026C98.8997 26.2088 98.8502 22.293 98.889 18.2826C92.9607 16.6067 89.4276 23.7914 92.1818 28.5581V28.5581ZM109.407 13.0635C108.797 15.0199 107.903 16.6732 107.121 18.446C106.414 18.6154 105.801 18.1453 105.444 18.446C105.287 26.3965 107.026 37.1746 104.072 42.9111C102.293 46.3649 99.018 48.5807 94.011 48.946C90.3636 49.2121 87.5326 48.5744 84.8647 47.4781V40.6277C87.9939 42.5826 95.901 44.1763 98.1269 40.1383C98.7817 38.9503 98.7402 37.7223 99.0414 35.8977C97.6083 35.9782 96.2171 36.6883 94.4684 36.7133C87.2792 36.8154 82.8315 30.6906 84.5598 22.197C85.2284 18.9116 87.0275 16.2663 89.438 14.6944C94.4444 11.4296 102.14 11.6775 109.407 13.0635" fill="white"/>
<path fill-rule="evenodd" clip-rule="evenodd" d="M36.3896 12.5413C36.3818 17.9459 36.3829 21.8296 36.3824 28.3956C36.091 34.8482 36.1588 39.9866 33.9506 43.0741C33.5151 43.6829 32.5903 44.5711 31.8164 45.1946C31.1666 45.718 29.9281 46.7795 29.225 46.8256C28.5163 46.8722 26.6954 45.7729 25.8713 45.3576C24.7891 44.8123 23.7888 44.0881 22.6702 43.7267C25.2795 41.9967 27.7564 40.6996 28.7676 37.2026C29.647 34.1612 29.5299 29.7541 29.5299 25.4591C29.5299 21.2182 29.5476 16.2876 29.5476 12.5432L36.3896 12.5415V12.5413Z" fill="white"/>
</svg>
