<svg width="62" height="83" viewBox="0 0 62 83" fill="none" xmlns="http://www.w3.org/2000/svg">
<path d="M2.26044 15.5288C2.26044 6.9525 9.18503 0 17.727 0H44.2656C52.8076 0 59.7322 6.9525 59.7322 15.5288C59.7322 20.9594 56.9557 25.7391 52.7502 28.5146C56.9557 31.2902 59.7322 36.0697 59.7322 41.5003C59.7322 50.0767 52.8076 57.0293 44.2656 57.0293H43.9298C39.9253 57.0293 36.2762 55.5012 33.5294 52.9942V67.3025C33.5294 75.9931 26.4238 83 17.8103 83C9.2897 83 2.26044 76.0687 2.26044 67.4711C2.26044 62.0407 5.03663 57.2614 9.24177 54.4858C5.03663 51.7101 2.26044 46.9307 2.26044 41.5003C2.26044 36.0697 5.03687 31.2902 9.2423 28.5146C5.03687 25.7391 2.26044 20.9594 2.26044 15.5288ZM28.4632 31.0581H17.727C11.983 31.0581 7.32664 35.7333 7.32664 41.5003C7.32664 47.2452 11.9471 51.9064 17.6605 51.9424C17.6826 51.9423 17.7047 51.9423 17.727 51.9423H28.4632V31.0581ZM33.5294 41.5003C33.5294 47.2674 38.1857 51.9426 43.9298 51.9426H44.2656C50.0096 51.9426 54.6659 47.2674 54.6659 41.5003C54.6659 35.7333 50.0096 31.0581 44.2656 31.0581H43.9298C38.1857 31.0581 33.5294 35.7333 33.5294 41.5003ZM17.727 57.0293C17.7047 57.0293 17.6826 57.0291 17.6605 57.0291C11.9471 57.0649 7.32664 61.7262 7.32664 67.4711C7.32664 73.217 12.0452 77.9133 17.8103 77.9133C23.6684 77.9133 28.4632 73.1415 28.4632 67.3025V57.0293H17.727ZM17.727 5.08664C11.983 5.08664 7.32664 9.76179 7.32664 15.5288C7.32664 21.296 11.983 25.9711 17.727 25.9711H28.4632V5.08664H17.727ZM33.5294 25.9711H44.2656C50.0096 25.9711 54.6659 21.296 54.6659 15.5288C54.6659 9.76179 50.0096 5.08664 44.2656 5.08664H33.5294V25.9711Z" fill="#FFF5F5"/>
</svg>
