<svg width="194" height="53" viewBox="0 0 194 53" fill="none" xmlns="http://www.w3.org/2000/svg">
<g clip-path="url(#clip0_104_45)" filter="url(#filter0_d_104_45)">
<path d="M83.5382 16.2004L83.5385 16.1986L82.3478 20.367L83.5381 16.2004H83.5382Z" fill="#F6F7FA"/>
<path d="M89.6625 25.2498L88.3503 25.2421L89.6625 25.2498Z" fill="#F6F7FA"/>
<path d="M89.3251 31.4747H89.3265L81.4647 31.503L89.3254 31.4747H89.3251Z" fill="#F6F7FA"/>
<path d="M90.9734 25.2575L89.6607 25.2498L90.9734 25.2575Z" fill="#F6F7FA"/>
<path d="M90.0142 30.9456L91.3837 25.787L90.0142 30.9467V30.946V30.9456Z" fill="#F6F7FA"/>
<path d="M118.959 7.18948L116.408 19.0351L118.959 7.18948V7.18948Z" fill="#F6F7FA"/>
<path d="M112.401 7.18948L110.465 16.0386L112.401 7.18878V7.18948V7.18948Z" fill="#F6F7FA"/>
<path d="M118.522 6.65649H113.067C112.764 6.65649 112.464 6.89635 112.399 7.18846L110.463 16.0383L108.526 24.8881C108.462 25.1802 108.162 25.4192 107.859 25.4192H104.549H103.998C100.178 25.4192 100.62 22.8099 101.402 19.2343C101.41 19.1984 101.418 19.1632 101.426 19.1264L101.511 18.6758C101.517 18.6467 101.523 18.6175 101.527 18.591L101.702 17.6735L101.889 16.6901C101.946 16.3937 102.032 15.9602 102.088 15.6879L102.968 11.4391L103.85 7.19031C103.91 6.89735 103.712 6.65663 103.409 6.65663H97.8098C97.5071 6.65663 97.2074 6.89735 97.1455 7.18947L95.9417 12.8312L94.7379 18.4723C94.7368 18.4747 94.7364 18.4783 94.7361 18.4808L94.6242 19.0051C93.2374 25.2585 93.6052 31.2216 101.142 31.4083C101.265 31.4118 101.36 31.4127 101.36 31.4127H113.191C113.493 31.4127 113.793 31.1728 113.856 30.8798L116.407 19.0353L118.958 7.18965C119.021 6.89668 118.825 6.65681 118.522 6.65681L118.522 6.65649Z" fill="#F6F7FA"/>
<path d="M140.284 25.481C140.587 25.481 140.785 25.7209 140.725 26.0139L140.195 28.5709" fill="#F6F7FA"/>
<path d="M139.666 31.1295L140.196 28.5707L139.666 31.1303C139.666 31.1296 139.666 31.1296 139.666 31.1296L139.666 31.1295Z" fill="#F6F7FA"/>
<path d="M139.002 31.6677C139.003 31.6677 139.004 31.667 139.004 31.667C137.399 31.6799 132.575 31.7159 128.949 31.7159C133.362 31.7159 139.001 31.6679 139.001 31.6679L139.002 31.6677Z" fill="#F6F7FA"/>
<path d="M125.694 22.1874C125.69 21.9072 126.013 21.4249 126.316 21.4249L125.635 21.4138C125.328 24.4634 125.694 22.1874 125.694 22.1874H125.694Z" fill="#F6F7FA"/>
<path d="M129.445 31.7147C129.411 31.7147 129.375 31.7147 129.341 31.7154C129.375 31.7147 129.411 31.7147 129.445 31.7147Z" fill="#F6F7FA"/>
<path d="M140.284 25.481C140.587 25.481 140.785 25.7209 140.725 26.0139L140.195 28.5709L140.109 28.9881" fill="#F6F7FA"/>
<path d="M130.28 31.7141C130.237 31.7141 130.195 31.714 130.152 31.7148C130.195 31.714 130.237 31.7141 130.28 31.7141Z" fill="#F6F7FA"/>
<path d="M130.611 31.713C130.5 31.713 130.39 31.7137 130.281 31.7137C130.39 31.7137 130.5 31.713 130.611 31.713Z" fill="#F6F7FA"/>
<path d="M132.007 31.7088C131.566 31.7105 131.125 31.7123 130.691 31.7132C131.125 31.7125 131.566 31.7107 132.007 31.7088Z" fill="#F6F7FA"/>
<path d="M139.005 31.6667H139.006C137.829 31.6761 134.924 31.6975 132.027 31.7086C134.922 31.6984 137.828 31.6761 139.005 31.6667V31.6667Z" fill="#F6F7FA"/>
<path d="M139.666 31.1305L140.11 28.9881L139.666 31.1322C139.666 31.1315 139.666 31.1315 139.666 31.1305L139.666 31.1305Z" fill="#F6F7FA"/>
<path d="M49.9538 22.2516L50.8011 18.5414L49.8324 22.7825L48.9026 27.1025L49.7175 23.3154C49.7803 23.0225 49.887 22.5436 49.9538 22.2515L49.9538 22.2516Z" fill="#F6F7FA"/>
<path d="M60.0959 6.59402H54.1051C53.802 6.59402 53.4998 6.83302 53.4321 7.12427L52.8641 9.6008L52.296 12.0782C52.2292 12.3695 52.4222 12.6084 52.7253 12.6084H58.7626C59.0653 12.6084 59.3662 12.3694 59.4313 12.0773L59.9803 9.6008L60.5292 7.12599V7.12529C60.5939 6.83317 60.3992 6.59417 60.096 6.59417L60.0959 6.59402Z" fill="#F6F7FA"/>
<path d="M58.7922 14.8323V14.8316L57.035 22.8607L58.7922 14.8323V14.8323Z" fill="#F6F7FA"/>
<path d="M41.389 41.4351C41.389 41.4351 44.4089 41.4737 46.3286 41.4737C44.8702 41.4737 42.4618 41.4471 41.3865 41.4343C41.3875 41.4343 41.3883 41.435 41.3893 41.435L41.389 41.4351Z" fill="#F6F7FA"/>
<path d="M51.6483 14.8312L50.8001 18.5414L51.6483 14.8312Z" fill="#F6F7FA"/>
<path d="M58.3588 14.3004H52.3208C52.0181 14.3004 51.7154 14.5394 51.6486 14.8315L50.8004 18.5417L49.9531 22.2518C49.8863 22.5439 49.7796 23.0228 49.7168 23.3158L48.9019 27.1028L48.0876 30.8898C48.0242 31.1819 47.8942 31.6539 47.797 31.9374C47.797 31.9374 46.6691 35.2526 44.7728 35.2149C44.6921 35.2132 44.6136 35.2125 44.536 35.2105C43.6171 35.1934 42.8951 35.1805 42.8951 35.1805H42.8937C42.5915 35.1761 42.2875 35.4092 42.2168 35.6997L41.5906 38.2995L40.9653 40.8986C40.8951 41.189 41.085 41.4288 41.3859 41.434C42.4614 41.4468 44.8698 41.4734 46.328 41.4734C51.0648 41.4734 53.5618 38.8812 55.1625 31.4218L57.0358 22.8607L58.7929 14.8316C58.8567 14.5395 58.6611 14.3005 58.3584 14.3005L58.3588 14.3004Z" fill="#F6F7FA"/>
<path d="M144.131 31.4123C143.829 31.4123 143.632 31.1724 143.696 30.8795L148.238 9.86542" fill="#F6F7FA"/>
<path d="M150.444 30.8786L152.281 21.9095L150.444 30.8786Z" fill="#F6F7FA"/>
<path d="M143.762 31.146C143.725 30.9995 143.747 30.6406 143.811 30.3476L145.967 20.3728L143.696 30.8795C143.632 31.1725 143.828 31.4123 144.131 31.4123H144.683C144.379 31.4123 143.798 31.2924 143.762 31.1459L143.762 31.146Z" fill="#F6F7FA"/>
<path d="M150.085 31.2923C149.92 31.3582 149.537 31.4122 149.234 31.4122H149.786C150.088 31.4122 150.386 31.1723 150.446 30.8785L150.555 30.3457C150.495 30.6386 150.25 31.2263 150.085 31.2923V31.2923Z" fill="#F6F7FA"/>
<path d="M151.364 26.394L152.175 22.4354C152.175 22.4379 152.174 22.4414 152.174 22.4431L151.364 26.394H151.364Z" fill="#F6F7FA"/>
<path d="M169.286 11.273L169.536 12.2941C169.605 12.5862 169.414 12.8235 169.112 12.8243" fill="#F6F7FA"/>
<path d="M150.554 30.346L151.363 26.3944L150.554 30.346Z" fill="#F6F7FA"/>
<path d="M169.037 10.227L169.285 11.273L169.037 10.227Z" fill="#F6F7FA"/>
<path d="M152.174 22.4358C152.234 22.1428 152.334 21.6682 152.397 21.3779L153.263 17.3705L152.282 21.9098L152.174 22.4357V22.4358Z" fill="#F6F7FA"/>
<path d="M148.313 9.52106C148.252 9.80375 148.175 10.161 148.124 10.3974L145.968 20.3728L148.239 9.86548L148.313 9.52111V9.52106Z" fill="#F6F7FA"/>
<path d="M169.535 12.294L169.284 11.2729L169.037 10.2269L168.911 9.69755C168.421 7.81551 166.981 6.7293 163.855 6.7293L158.989 6.72418L154.506 6.71906H154.122H149.463C149.161 6.71906 148.861 6.95806 148.798 7.25102H148.798L148.575 8.29183L148.312 9.52109L148.239 9.86546L145.968 20.3728L143.812 30.3476C143.748 30.6405 143.726 30.9995 143.763 31.146C143.8 31.2924 144.381 31.4124 144.684 31.4124H149.234C149.537 31.4124 149.92 31.3584 150.085 31.2924C150.25 31.2265 150.494 30.6388 150.554 30.3458L151.363 26.3943L152.173 22.4434C152.173 22.4416 152.174 22.4383 152.174 22.4357L152.282 21.9097L153.263 17.3704L154.13 13.3613C154.194 13.07 154.492 12.8319 154.794 12.831L169.11 12.8242C169.413 12.8235 169.604 12.586 169.535 12.2939L169.535 12.294Z" fill="#F6F7FA"/>
<path d="M187.964 3.06119C187.661 3.0633 187.166 3.06516 186.863 3.06516H182.28C181.977 3.06516 181.589 3.26732 181.418 3.51445L171.286 18.1766C171.114 18.4241 170.919 18.3873 170.852 18.096L170.107 14.8657C170.039 14.5736 169.736 14.3354 169.433 14.3354H162.919C162.616 14.3354 162.437 14.5702 162.519 14.858L165.438 24.9576C165.521 25.2455 165.528 25.7184 165.453 26.0079L164.18 30.896C164.105 31.1864 164.291 31.4236 164.594 31.4236H171.032C171.335 31.4236 171.645 31.1864 171.72 30.896L172.992 26.0079C173.067 25.7184 173.278 25.2849 173.461 25.0459L189.911 3.48133C190.093 3.24233 189.994 3.04786 189.692 3.05004L187.965 3.06116L187.964 3.06119Z" fill="#F6F7FA"/>
<path d="M136.213 15.7102L136.213 15.7042C136.175 16.0288 135.872 16.267 135.569 16.267H127.31C127.025 16.267 126.88 16.0751 126.922 15.8387C126.924 15.8318 126.925 15.8258 126.929 15.8198C126.929 15.8198 126.927 15.8205 126.924 15.8223C126.926 15.8128 126.926 15.8043 126.929 15.7949C126.929 15.7949 126.944 15.7375 126.966 15.6561C127.755 13.5848 129.362 12.2253 132.381 12.2253C135.781 12.2253 136.444 13.8658 136.213 15.7101L136.213 15.7102ZM133.79 6.29474C123.19 6.29474 120.678 12.6502 119.269 19.0646C117.859 25.6025 117.981 31.7154 128.95 31.7154H129.339C129.374 31.7147 129.41 31.7147 129.444 31.7147H129.751H129.864H130.152C130.194 31.714 130.237 31.714 130.28 31.714C130.39 31.714 130.5 31.7133 130.611 31.7133H130.688C131.122 31.7126 131.563 31.7105 132.004 31.709H132.027C134.924 31.6978 137.829 31.6764 139.006 31.667C139.307 31.6626 139.601 31.4228 139.663 31.1325L140.107 28.9883L140.194 28.5711L140.724 26.0141C140.784 25.7211 140.586 25.4812 140.283 25.4812H130.421C126.499 25.4812 125.334 24.4515 125.763 21.4251H141.528L141.526 21.4268C141.53 21.4268 141.534 21.4251 141.537 21.4251C141.788 21.4207 142.019 21.2503 142.111 21.0233C142.129 20.9796 142.143 20.9342 142.15 20.8871L142.148 20.8889C144.489 12.1682 143.817 6.29519 133.79 6.29519L133.79 6.29474Z" fill="#F6F7FA"/>
<path d="M83.6874 15.6768L83.5382 16.1985C83.5382 16.2003 83.5379 16.2003 83.5379 16.2003L82.3475 20.3669L81.1576 24.5329C81.0752 24.8207 80.7604 25.0563 80.4568 25.0563H74.1563C69.3773 25.0563 68.2135 21.3644 69.3773 15.9188C70.5408 10.3489 72.8221 6.88649 77.5258 6.53597C83.9535 6.05709 85.2394 10.5226 83.6874 15.677L83.6874 15.6768ZM88.0082 24.7358C88.0082 24.7358 90.9786 17.6119 91.6533 13.4968C92.5734 7.98842 89.7812 0 78.9961 0C68.2725 0 63.616 7.62702 61.8391 15.9182C60.0625 24.2695 62.3903 31.5937 73.053 31.5337L81.4647 31.5028L89.3265 31.4746C89.6292 31.4721 89.9388 31.2347 90.016 30.946L91.3854 25.7863C91.4617 25.4968 91.2766 25.2587 90.9739 25.2569L89.6613 25.2492L88.3491 25.2415C88.0915 25.2398 87.9441 25.0753 87.9753 24.8569C87.9809 24.8175 87.99 24.7772 88.0074 24.7352L88.0082 24.7358Z" fill="#F6F7FA"/>
<path d="M141.094 19.9677C141.094 20.1647 140.932 20.3249 140.732 20.3249C140.533 20.3249 140.371 20.1647 140.371 19.9677C140.371 19.7707 140.533 19.6114 140.732 19.6114C140.932 19.6114 141.094 19.7707 141.094 19.9677Z" fill="#F6F7FA"/>
<path d="M6.1238 10.7049C3.16288 14.9084 3.53147 20.3772 5.79336 24.8435C5.84714 24.9506 5.90351 25.056 5.95901 25.1613C5.99458 25.2281 6.02796 25.2967 6.06482 25.3626C6.08565 25.402 6.10905 25.4406 6.13074 25.4783C6.16932 25.5494 6.20879 25.6171 6.24868 25.6864C6.31894 25.8089 6.39092 25.9306 6.46464 26.0522C6.5054 26.119 6.54573 26.1859 6.5878 26.2527C6.66932 26.3829 6.75301 26.5114 6.83844 26.6399C6.87401 26.6947 6.90869 26.7495 6.94511 26.8026C7.06307 26.9765 7.18362 27.1496 7.30806 27.32C7.31115 27.3244 7.31455 27.3295 7.31845 27.3337C7.33799 27.3611 7.35966 27.3877 7.3796 27.4151C7.48714 27.5616 7.59816 27.7064 7.71047 27.8494C7.75168 27.9017 7.79329 27.9539 7.83492 28.0062C7.9351 28.1304 8.037 28.2538 8.14064 28.3771C8.17923 28.4234 8.21826 28.4696 8.25729 28.515C8.39649 28.6769 8.53829 28.838 8.68311 28.9956C8.68578 28.998 8.6892 29.0016 8.69177 29.0041C8.69786 29.011 8.70305 29.0153 8.70824 29.0221C8.84961 29.1746 8.99445 29.3236 9.14103 29.4727C9.18656 29.519 9.23297 29.5652 9.2798 29.6106C9.39341 29.7237 9.50876 29.8351 9.62541 29.9456C9.67267 29.9901 9.71951 30.0355 9.76678 30.0783C9.92245 30.2231 10.0799 30.3653 10.2403 30.5041C10.243 30.5065 10.2451 30.5085 10.2477 30.5101C10.275 30.5341 10.3032 30.5564 10.3301 30.5795C10.4714 30.7003 10.6154 30.8202 10.7602 30.9384C10.8192 30.9855 10.8791 31.0318 10.9385 31.0789C11.0568 31.1723 11.1765 31.2648 11.2971 31.3556C11.3608 31.4036 11.4246 31.4516 11.4888 31.4995C11.6219 31.5963 11.7559 31.6914 11.8912 31.7848C11.9406 31.8199 11.9883 31.8542 12.0377 31.8876C12.0516 31.897 12.0642 31.9064 12.0781 31.9159C12.2064 32.0032 12.3378 32.0872 12.4688 32.1711C12.5252 32.208 12.5811 32.2465 12.6379 32.2825C12.8391 32.4084 13.0434 32.5326 13.2498 32.6526C13.3057 32.6843 13.3625 32.7151 13.4189 32.7468C13.5707 32.8333 13.7233 32.9181 13.8781 33.0012C13.9618 33.0458 14.0477 33.0877 14.1322 33.1306C14.2415 33.1871 14.3499 33.2445 14.4609 33.2993C14.4861 33.3114 14.5121 33.3233 14.5368 33.3353C14.5815 33.3567 14.6266 33.3773 14.6712 33.3995C14.8434 33.4809 15.0169 33.5606 15.1921 33.6377C15.2294 33.654 15.2653 33.6702 15.3022 33.6865C15.503 33.773 15.7055 33.8561 15.9097 33.9358C15.9587 33.9555 16.0082 33.9743 16.0576 33.9932C16.2467 34.0651 16.4384 34.1362 16.6309 34.2031C16.6552 34.2116 16.6786 34.2193 16.7029 34.2279C16.9141 34.3007 17.1274 34.3684 17.3421 34.4343C17.3932 34.4489 17.4448 34.4652 17.4964 34.4797C17.715 34.5448 17.931 34.6228 18.1564 34.6639C32.4762 37.2432 36.6357 26.1642 36.6357 26.1642C33.1422 30.6597 26.9412 31.8453 21.0658 30.5253C20.8434 30.4756 20.6274 30.4071 20.4102 30.3437C20.3551 30.3274 20.3009 30.3112 20.2467 30.2949C20.0346 30.2306 19.8243 30.1629 19.6153 30.0918C19.5867 30.0816 19.5577 30.0713 19.5286 30.061C19.3413 29.9959 19.1561 29.9274 18.9718 29.8571C18.9198 29.8366 18.8677 29.8169 18.8157 29.7963C18.6136 29.7175 18.4128 29.6353 18.2147 29.5496C18.1739 29.5324 18.1349 29.5145 18.0945 29.4973C17.9241 29.4211 17.7554 29.344 17.5876 29.2643C17.539 29.2412 17.4905 29.2189 17.441 29.1949C17.3092 29.1314 17.1789 29.0637 17.0488 28.9977C16.9618 28.9525 16.8734 28.9097 16.787 28.8623C16.6282 28.7785 16.4723 28.6911 16.3171 28.602C16.2645 28.5728 16.2112 28.5448 16.1583 28.5146C15.9519 28.3946 15.748 28.2704 15.5462 28.1444C15.4904 28.1093 15.4361 28.0718 15.381 28.0356C15.2346 27.9423 15.089 27.8472 14.9455 27.7497C14.8979 27.7177 14.852 27.6837 14.8052 27.6521C14.6666 27.5553 14.5295 27.4574 14.3934 27.3581C14.3316 27.3128 14.2709 27.2672 14.2108 27.222C14.0861 27.1276 13.9622 27.0325 13.8393 26.9349C13.7838 26.8913 13.7282 26.8476 13.6736 26.8039C13.5175 26.6771 13.3631 26.5495 13.2109 26.4184C13.1949 26.4047 13.1775 26.391 13.1602 26.3764C12.9954 26.2334 12.8336 26.0869 12.6736 25.9395C12.6272 25.8959 12.5821 25.853 12.5366 25.8093C12.4182 25.698 12.3016 25.5858 12.1871 25.471C12.1411 25.4256 12.0952 25.381 12.0501 25.3356C11.9044 25.1883 11.7612 25.0392 11.6212 24.8876C11.6142 24.8799 11.6069 24.8731 11.5999 24.8653C11.4516 24.7051 11.3068 24.5415 11.165 24.3762C11.1264 24.3308 11.0891 24.2871 11.0509 24.2426C10.9451 24.1167 10.8402 23.989 10.7379 23.8605C10.6995 23.8142 10.6611 23.7668 10.6231 23.7191C10.4998 23.5612 10.3794 23.4037 10.2615 23.2437C6.99956 18.8489 5.82773 12.7875 8.43483 7.80963" fill="#F5FBFF"/>
<path d="M15.3151 7.16351C13.1738 10.2071 13.29 14.2814 14.9604 17.5004C15.2405 18.04 15.5554 18.5634 15.9075 19.062C16.2284 19.516 16.584 20.0566 17.0098 20.4215C17.1642 20.5894 17.3255 20.753 17.4902 20.914C17.5318 20.956 17.5744 20.9963 17.6169 21.0374C17.7769 21.1907 17.9395 21.3415 18.1077 21.488C18.1147 21.4931 18.1208 21.5 18.1277 21.5052C18.1295 21.5069 18.1312 21.5076 18.1324 21.5095C18.3185 21.6706 18.5105 21.8256 18.7057 21.9781C18.7491 22.0106 18.792 22.0449 18.8358 22.0783C19.0314 22.2265 19.2309 22.3722 19.4355 22.5109C19.4416 22.5153 19.4468 22.5195 19.4529 22.5238C19.5431 22.5854 19.635 22.6428 19.7265 22.7019C19.7703 22.7302 19.8119 22.7602 19.8562 22.7868C20.0023 22.8793 20.1502 22.9692 20.3007 23.0557C20.3219 23.0686 20.3427 23.0797 20.3635 23.0917C20.4932 23.1654 20.6246 23.2382 20.7564 23.3084C20.8024 23.3341 20.8492 23.3564 20.8961 23.3804C20.9871 23.4275 21.0782 23.4755 21.171 23.5209C21.1848 23.5277 21.1992 23.5337 21.2126 23.5397C21.4012 23.6314 21.5916 23.7196 21.7859 23.8036C21.8275 23.8216 21.8704 23.8378 21.9125 23.855C22.0677 23.9201 22.2247 23.9835 22.3825 24.0434C22.4493 24.0683 22.517 24.0923 22.5838 24.1163C22.7269 24.1685 22.8704 24.2165 23.0152 24.2645C23.0807 24.285 23.1449 24.3064 23.2104 24.3261C23.4163 24.3895 23.6197 24.4692 23.8344 24.5043C34.8905 26.3135 37.4429 17.9057 37.4429 17.9057C35.142 21.1789 30.6862 22.7405 25.9314 21.5215C25.7202 21.4667 25.512 21.4067 25.3052 21.3425C25.2419 21.3236 25.1799 21.3031 25.117 21.2825C24.97 21.2354 24.8238 21.1857 24.679 21.1334C24.6127 21.1094 24.5463 21.0855 24.4813 21.0606C24.3226 21.0007 24.1656 20.9381 24.0099 20.873C23.9674 20.855 23.9245 20.8388 23.8828 20.8199C23.6877 20.736 23.4956 20.6477 23.3061 20.5552C23.2085 20.5081 23.1127 20.4584 23.0169 20.4096C22.9614 20.3814 22.9054 20.3531 22.8499 20.3248C22.7268 20.2588 22.6045 20.1903 22.4839 20.1209C22.4553 20.1046 22.4254 20.0892 22.3963 20.0721C22.2467 19.9856 22.0993 19.8965 21.9531 19.8048C21.908 19.7765 21.8647 19.7457 21.8195 19.7166C21.7233 19.6549 21.627 19.5924 21.5325 19.529C21.3287 19.3902 21.1305 19.2446 20.9349 19.0972C20.8898 19.0621 20.8447 19.0278 20.8005 18.9927C18.7192 17.3696 17.0694 15.1517 16.2851 12.6366C15.463 10.0281 15.6403 7.10008 17.0644 4.72394" fill="#F5FBFF"/>
<path d="M23.0455 4.51753C21.7831 6.35244 21.6591 8.63122 22.5351 10.6579C23.4587 12.8089 25.3516 14.4965 27.5606 15.2965C27.6517 15.3299 27.7428 15.3599 27.8351 15.3907C27.8755 15.4027 27.9154 15.4164 27.9561 15.4284C28.0862 15.4686 28.2154 15.5158 28.3499 15.5406C34.4547 16.7056 36.1104 12.4464 36.5513 11.8195C35.1008 13.8823 32.6632 14.3774 29.6724 13.6605C29.4362 13.6036 29.1765 13.5194 28.9488 13.4398C28.6568 13.337 28.3691 13.2198 28.0895 13.0871C27.5584 12.8352 27.0522 12.5292 26.5829 12.1791C23.9065 10.1734 22.244 6.34713 23.9904 3.23099" fill="#F5FBFF"/>
<path d="M91.8011 40.2562L90.0414 44.2147H88.0986L88.2578 40.6179L86.8276 44.2147H84.9465L84.897 40.2562L85.1047 39.2787H86.4369L86.1802 43.1886L87.6589 39.2787H89.5162L89.3818 43.2373L90.8484 39.2787H92.0088L91.8011 40.2562H91.8011Z" fill="#F5FBFF"/>
<path d="M94.8668 41.4281C95.0381 40.6554 94.9891 40.5106 94.5858 40.5106H93.9748L93.5836 42.3215L92.9848 44.2155H91.8486L92.777 39.9194L92.9119 39.2915H93.9505L94.0849 39.581C94.0849 39.581 94.6838 39.2315 95.2696 39.2315C96.5164 39.2315 96.4188 40.1601 96.1495 41.4279H94.8668L94.8668 41.4281Z" fill="#F5FBFF"/>
<path d="M98.5577 38.6632C98.0573 38.6632 97.7394 38.5184 97.8613 37.9153C97.9957 37.3114 98.3869 37.1666 98.8751 37.1666C99.3647 37.1666 99.6943 37.3114 99.5598 37.9153C99.4376 38.5064 99.0469 38.6632 98.5577 38.6632H98.5577ZM98.0204 44.2151H96.8956L97.1158 42.2842L97.507 40.4982L96.7252 40.3286L96.945 39.2792H99.0829L98.0205 44.215L98.0204 44.2151Z" fill="#F5FBFF"/>
<path d="M102.895 40.3263L101.49 40.4959L101.086 42.3788C100.976 42.8979 100.976 43.0427 101.441 43.0427H102.382L102.186 44.0321C102.186 44.0321 101.331 44.2857 100.964 44.2857C99.5223 44.2857 99.5344 43.501 99.7916 42.33L100.183 40.4839L99.4005 40.3152L99.6325 39.2649H100.452L100.916 38.0211H102.028L101.759 39.2649H103.127L102.895 40.3263L102.895 40.3263Z" fill="#F5FBFF"/>
<path d="M105.815 40.3895C105.156 40.3895 104.813 40.7278 104.679 41.3309L106.561 41.1741C106.646 40.7638 106.561 40.3895 105.815 40.3895V40.3895ZM104.496 42.2235C104.41 42.8274 104.642 43.0322 105.424 43.0322H107.391L107.196 43.9496C107.196 43.9496 106.011 44.2752 105.131 44.2752C102.944 44.2752 102.919 43.057 103.2 41.7532C103.481 40.4734 103.982 39.2073 106.096 39.2073C108.137 39.2073 108.235 40.4254 107.734 42.2235H104.496L104.496 42.2235Z" fill="#F5FBFF"/>
<path d="M112.217 44.214H111.093L111.313 42.2832L112.107 38.6141L111.325 38.4333L111.557 37.3831H113.696L112.217 44.2139V44.214Z" fill="#F5FBFF"/>
<path d="M116.277 40.3895C115.617 40.3895 115.275 40.7278 115.14 41.3309L117.022 41.1741C117.107 40.7638 117.022 40.3895 116.277 40.3895L116.277 40.3895ZM114.957 42.2235C114.872 42.8274 115.104 43.0322 115.885 43.0322H117.853L117.657 43.9496C117.657 43.9496 116.472 44.2752 115.592 44.2752C113.405 44.2752 113.381 43.057 113.662 41.7532C113.943 40.4734 114.444 39.2073 116.558 39.2073C118.598 39.2073 118.696 40.4254 118.195 42.2235H114.957L114.957 42.2235Z" fill="#F5FBFF"/>
<path d="M123.35 40.4491C123.35 40.4491 121.92 40.4612 121.529 40.4612C120.698 40.4612 120.613 40.7139 120.552 40.9794L120.503 41.221L123.142 41.4146C123.142 41.4146 123.154 42.2472 123.044 42.7175C122.885 43.5022 122.067 44.298 120.588 44.298C119.855 44.298 118.67 44.0213 118.67 44.0213L118.877 43.0679H120.698C121.505 43.0679 121.615 42.8503 121.664 42.6336L121.725 42.32L119.134 42.1264C119.134 42.1264 119.037 41.4865 119.171 40.8475C119.367 39.978 120.173 39.2302 121.651 39.2302C122.385 39.2302 123.57 39.4949 123.57 39.4949L123.35 40.4491L123.35 40.4491Z" fill="#F5FBFF"/>
<path d="M128.263 40.4491C128.263 40.4491 126.834 40.4612 126.442 40.4612C125.612 40.4612 125.526 40.7139 125.465 40.9794L125.416 41.221L128.056 41.4146C128.056 41.4146 128.068 42.2472 127.958 42.7175C127.799 43.5022 126.98 44.298 125.501 44.298C124.769 44.298 123.583 44.0213 123.583 44.0213L123.791 43.0679H125.612C126.418 43.0679 126.528 42.8503 126.577 42.6336L126.638 42.32L124.047 42.1264C124.047 42.1264 123.95 41.4865 124.084 40.8475C124.28 39.978 125.085 39.2302 126.565 39.2302C127.297 39.2302 128.483 39.4949 128.483 39.4949L128.263 40.4491L128.263 40.4491Z" fill="#F5FBFF"/>
<path d="M129.801 45H128.824L128.86 44.2753C128.506 44.2522 128.323 43.9986 128.408 43.5754C128.543 42.9723 128.922 42.8276 129.422 42.8276C129.911 42.8276 130.24 42.9724 130.107 43.5754L129.801 45V45Z" fill="#F5FBFF"/>
<path d="M136.338 40.4982C135.605 40.4982 135.348 40.9326 135.177 41.7292C135.006 42.5259 135.055 42.9962 135.788 42.9962H136.802L137.364 40.4982H136.338ZM138.012 43.5753L137.877 44.2152L136.851 44.2032L136.704 43.8897C136.704 43.8897 135.8 44.2751 135.19 44.2751C133.625 44.2751 133.552 43.0082 133.833 41.7292C134.114 40.4254 134.725 39.1944 136.277 39.1944C136.839 39.1944 137.596 39.472 137.596 39.472L138.22 37.3844H139.344L138.012 43.5752L138.012 43.5753Z" fill="#F5FBFF"/>
<path d="M142.057 40.4491C141.104 40.4491 140.798 40.9794 140.627 41.7521C140.468 42.5367 140.542 43.0679 141.482 43.0679C142.46 43.0679 142.754 42.5487 142.924 41.7521C143.096 41.0034 143.046 40.4491 142.057 40.4491H142.057ZM141.226 44.287C139.21 44.287 139.051 43.044 139.32 41.7522C139.601 40.4613 140.31 39.2303 142.326 39.2303C144.33 39.2303 144.513 40.4613 144.232 41.7522C143.951 43.068 143.242 44.287 141.226 44.287V44.287Z" fill="#F5FBFF"/>
<path d="M152.664 44.2141L152.885 42.3072L152.994 41.7641C153.153 41.0402 153.251 40.5091 152.481 40.5091H151.882C151.907 40.8835 151.833 41.3058 151.736 41.7521L151.211 44.2141H150.074L150.294 42.3072L150.404 41.7641C150.563 41.0402 150.66 40.5091 149.891 40.5091H149.402L148.595 44.214H147.288L148.351 39.2782H149.377L149.536 39.5798C149.536 39.5798 150.233 39.2174 150.795 39.2174C151.222 39.2174 151.54 39.411 151.65 39.6517C151.895 39.5189 152.591 39.2174 153.093 39.2174C154.656 39.2174 154.607 40.4724 154.326 41.7522L153.801 44.2141H152.664L152.664 44.2141Z" fill="#F5FBFF"/>
<path d="M157.858 40.4491C156.904 40.4491 156.599 40.9794 156.428 41.7521C156.269 42.5367 156.343 43.0679 157.283 43.0679C158.261 43.0679 158.555 42.5487 158.726 41.7521C158.896 41.0034 158.847 40.4491 157.858 40.4491V40.4491ZM157.027 44.287C155.01 44.287 154.852 43.044 155.121 41.7522C155.402 40.4613 156.11 39.2303 158.127 39.2303C160.131 39.2303 160.314 40.4613 160.033 41.7522C159.752 43.068 159.043 44.287 157.027 44.287V44.287Z" fill="#F5FBFF"/>
<path d="M163.428 41.4281C163.599 40.6554 163.55 40.5106 163.147 40.5106H162.536L162.145 42.3215L161.546 44.2155H160.41L161.338 39.9194L161.473 39.2915H162.512L162.646 39.581C162.646 39.581 163.245 39.2315 163.832 39.2315C165.078 39.2315 164.98 40.1601 164.711 41.4279H163.428L163.428 41.4281Z" fill="#F5FBFF"/>
<path d="M167.805 40.3895C167.145 40.3895 166.803 40.7278 166.669 41.3309L168.55 41.1741C168.636 40.7638 168.55 40.3895 167.805 40.3895V40.3895ZM166.485 42.2235C166.4 42.8274 166.632 43.0322 167.413 43.0322H169.381L169.186 43.9496C169.186 43.9496 168 44.2752 167.121 44.2752C164.933 44.2752 164.909 43.057 165.189 41.7532C165.471 40.4734 165.972 39.2073 168.086 39.2073C170.126 39.2073 170.224 40.4254 169.723 42.2235H166.485V42.2235Z" fill="#F5FBFF"/>
<path d="M170.821 44.2877C170.307 44.2877 169.99 44.143 170.125 43.5519C170.246 42.9471 170.625 42.8032 171.139 42.8032C171.615 42.8032 171.945 42.9471 171.823 43.5519C171.688 44.131 171.298 44.2877 170.821 44.2877V44.2877Z" fill="#F5FBFF"/>
</g>
<defs>
<filter id="filter0_d_104_45" x="0" y="0" width="194" height="53" filterUnits="userSpaceOnUse" color-interpolation-filters="sRGB">
<feFlood flood-opacity="0" result="BackgroundImageFix"/>
<feColorMatrix in="SourceAlpha" type="matrix" values="0 0 0 0 0 0 0 0 0 0 0 0 0 0 0 0 0 0 127 0" result="hardAlpha"/>
<feOffset dy="4"/>
<feGaussianBlur stdDeviation="2"/>
<feComposite in2="hardAlpha" operator="out"/>
<feColorMatrix type="matrix" values="0 0 0 0 0 0 0 0 0 0 0 0 0 0 0 0 0 0 0.25 0"/>
<feBlend mode="normal" in2="BackgroundImageFix" result="effect1_dropShadow_104_45"/>
<feBlend mode="normal" in="SourceGraphic" in2="effect1_dropShadow_104_45" result="shape"/>
</filter>
<clipPath id="clip0_104_45">
<rect width="186" height="45" fill="white" transform="translate(4)"/>
</clipPath>
</defs>
</svg>
