<svg width="81" height="94" viewBox="0 0 81 94" fill="none" xmlns="http://www.w3.org/2000/svg">
<path d="M72.3214 5.875H8.67857C3.88728 5.875 0 9.82227 0 14.6875V79.3125C0 84.1777 3.88728 88.125 8.67857 88.125H72.3214C77.1127 88.125 81 84.1777 81 79.3125V14.6875C81 9.82227 77.1127 5.875 72.3214 5.875ZM44.0799 70.0227C44.0799 78.0273 39.4513 81.6809 32.7074 81.6809C26.6143 81.6809 23.0886 78.4863 21.2806 74.6125L27.4821 70.8121C28.6754 72.9602 29.7603 74.7777 32.3819 74.7777C34.877 74.7777 36.4681 73.7863 36.4681 69.9125V43.6402H44.0799V70.0227ZM62.0879 81.6809C55.0185 81.6809 50.4442 78.266 48.2203 73.7863L54.4219 70.1512C56.0491 72.85 58.1826 74.8512 61.9252 74.8512C65.0712 74.8512 67.0962 73.2539 67.0962 71.0324C67.0962 68.3887 65.035 67.4523 61.5455 65.8918L59.6471 65.0656C54.1507 62.6973 50.5165 59.7047 50.5165 53.4074C50.5165 47.6059 54.8739 43.1996 61.654 43.1996C66.4995 43.1996 69.971 44.907 72.4661 49.3867L66.5357 53.2422C65.2339 50.8738 63.8237 49.9375 61.6359 49.9375C59.4121 49.9375 58.0018 51.3695 58.0018 53.2422C58.0018 55.5555 59.4121 56.4918 62.6846 57.9422L64.583 58.7684C71.0558 61.5773 74.69 64.4598 74.69 70.9223C74.69 77.8621 69.302 81.6809 62.0879 81.6809Z" fill="#FFF9F9"/>
</svg>
