<svg width="50" height="59" viewBox="0 0 50 59" fill="none" xmlns="http://www.w3.org/2000/svg">
<path d="M46.4286 3.63635H3.56027C1.59598 3.63635 0 5.28408 0 7.30681V50.875C0 52.8977 1.59598 54.5454 3.56027 54.5454H46.4286C48.3929 54.5454 50 52.8977 50 50.875V7.30681C50 5.28408 48.3929 3.63635 46.4286 3.63635ZM15.1116 47.2727H7.70089V22.9773H15.1228V47.2727H15.1116ZM11.4062 19.6591C9.02902 19.6591 7.10938 17.6932 7.10938 15.2841C7.10938 12.875 9.02902 10.9091 11.4062 10.9091C13.7723 10.9091 15.7031 12.875 15.7031 15.2841C15.7031 17.7045 13.7835 19.6591 11.4062 19.6591ZM42.8906 47.2727H35.4799V35.4545C35.4799 32.6364 35.4241 29.0114 31.6295 29.0114C27.7679 29.0114 27.1763 32.0795 27.1763 35.25V47.2727H19.7656V22.9773H26.875V26.2954H26.9754C27.9688 24.3864 30.3906 22.375 33.9955 22.375C41.4955 22.375 42.8906 27.4091 42.8906 33.9545V47.2727Z" fill="#FFFCFC"/>
</svg>
