<svg width="193" height="129" viewBox="0 0 193 129" fill="none" xmlns="http://www.w3.org/2000/svg">
<path d="M22.2692 96.0799H27.1603V76.7157L34.732 93.5967C35.6255 95.6396 36.8484 96.3628 39.2467 96.3628C41.6454 96.3628 42.8212 95.64 43.7151 93.5967L51.2867 76.7157V96.0795H56.1778V76.7474C56.1778 74.861 55.4252 73.9495 53.8736 73.4783C50.1582 72.3152 47.6654 73.321 46.5365 75.8359L39.1058 92.4962L31.9105 75.8359C30.8288 73.321 28.2892 72.3152 24.5739 73.4783C23.0218 73.9495 22.2692 74.8614 22.2692 76.747V96.0799ZM60.2447 80.3185H65.1343V90.9867C65.0886 91.5664 65.3197 92.9265 67.9991 92.9685C69.3661 92.9903 78.5492 92.9685 78.6348 92.9685V80.2665H83.5358C83.5583 80.2665 83.5309 97.589 83.5313 97.6627C83.5579 101.935 78.2441 102.863 75.7947 102.935H60.3506V99.6353C60.378 99.6353 75.7833 99.6388 75.8222 99.6349C78.97 99.3016 78.5983 97.7329 78.5979 97.2048V95.9187H68.2018C63.3648 95.8741 60.2851 93.7574 60.247 91.3231C60.2432 91.0974 60.3513 80.425 60.2443 80.3181L60.2447 80.3185Z" fill="#FAFCFD"/>
<path d="M87.3053 96.0798H101.367C103.013 96.0798 104.612 95.7343 105.882 95.1367C107.998 94.1626 109.033 92.8425 109.033 91.1131V87.5297C109.033 86.115 107.857 84.7945 105.553 83.9147C104.33 83.4428 102.825 83.1915 101.367 83.1915H95.4406C93.4662 83.1915 92.5255 82.5943 92.2905 81.2742C92.2433 81.1169 92.2433 80.9909 92.2433 80.8339V78.6024C92.2433 78.4764 92.2433 78.3504 92.2905 78.1934C92.5255 77.1876 93.0431 76.9043 94.7829 76.7473C94.9238 76.7473 95.1119 76.7156 95.2532 76.7156H109.221V73.447H95.4882C93.5131 73.447 92.4782 73.5726 91.5379 73.8552C88.622 74.767 87.3522 76.2131 87.3522 78.7276V81.5885C87.3522 83.7891 89.8449 85.6751 94.0303 86.115C94.501 86.1463 94.971 86.1776 95.441 86.1776H100.52C100.709 86.1776 100.897 86.1776 101.038 86.2093C102.59 86.3353 103.248 86.6179 103.719 87.1838C104.001 87.4664 104.095 87.7497 104.095 88.064V90.9241C104.095 91.2704 103.86 91.7107 103.39 92.0876C102.966 92.4648 102.261 92.7165 101.32 92.7795C101.132 92.7795 100.991 92.8108 100.803 92.8108H87.3049V96.0795L87.3053 96.0798ZM139.545 90.3902C139.545 93.7536 142.037 95.6399 147.07 96.0172C147.54 96.0485 148.011 96.0798 148.481 96.0798H161.226V92.8108H148.386C145.518 92.8108 144.436 92.0876 144.436 90.3589V73.4466H139.545V90.3902ZM112.155 90.5617V78.9063C112.155 75.9454 114.228 74.1496 118.328 73.5825C118.765 73.52 119.206 73.4885 119.648 73.4882H128.932C129.403 73.4882 129.828 73.5199 130.299 73.5825C134.399 74.1496 136.472 75.9454 136.472 78.9063V90.5613C136.472 92.9631 135.592 94.2492 133.562 95.087L138.38 99.447H132.701L128.803 95.9195L124.879 96.1688H119.648C118.752 96.1688 117.81 96.0424 116.773 95.7591C113.663 94.9087 112.155 93.2705 112.155 90.5613V90.5617ZM117.433 90.2783C117.433 90.436 117.481 90.5934 117.528 90.7824C117.81 92.1368 119.083 92.8929 121.015 92.8929H125.459L121.377 89.1984H127.056L130.616 92.4205C131.272 92.07 131.704 91.5339 131.855 90.8454C131.901 90.6881 131.901 90.5304 131.901 90.373V79.1904C131.901 79.0644 131.901 78.9067 131.855 78.749C131.572 77.4889 130.299 76.7649 128.414 76.7649H121.015C118.848 76.7649 117.434 77.71 117.434 79.1904V90.2783H117.433Z" fill="#FFFCF7"/>
<path d="M165.528 68.0236C162.522 67.9418 160.226 68.2221 158.262 69.0523C157.704 69.2883 156.815 69.2944 156.724 69.9955C157.03 70.3177 157.078 70.7989 157.322 71.1952C157.79 71.9559 158.582 72.9751 159.288 73.5097C160.06 74.0939 160.855 74.7182 161.682 75.2242C163.153 76.1234 164.796 76.637 166.213 77.5382C167.048 78.0694 167.877 78.7384 168.692 79.3379C169.095 79.6342 169.365 80.0951 169.889 80.2811V80.1952C169.614 79.8442 169.543 79.3616 169.29 78.995L168.179 77.8807C167.092 76.4347 165.713 75.1646 164.246 74.1096C163.077 73.2679 160.46 72.1315 159.972 70.7668L159.886 70.6809C160.715 70.5873 161.686 70.2864 162.451 70.0814C163.737 69.7354 164.885 69.8248 166.213 69.4811C166.811 69.3096 167.41 69.1378 168.008 68.9667V68.6238C167.337 67.9334 166.859 67.0201 166.127 66.3953C164.213 64.761 162.124 63.1282 159.972 61.7669C158.779 61.0116 157.304 60.5209 156.04 59.8809C155.614 59.6659 154.866 59.5541 154.586 59.1951C153.922 58.3462 153.56 57.2698 153.047 56.2808C151.974 54.2092 150.92 51.9464 149.97 49.7664C149.321 48.2802 148.898 46.8146 148.089 45.4808C144.207 39.0821 140.029 35.2204 133.556 31.424C132.179 30.6168 130.52 30.2976 128.768 29.8813L125.947 29.7095C125.373 29.4689 124.776 28.7652 124.237 28.4238C122.093 27.0659 116.593 24.1115 115.005 27.9954C114.002 30.4469 116.503 32.8392 117.398 34.0813C118.026 34.9527 118.83 35.9295 119.279 36.9097C119.574 37.5539 119.625 38.1996 119.877 38.8813C120.499 40.5603 121.039 42.3867 121.843 43.9381C122.25 44.7232 122.698 45.5503 123.212 46.2522C123.527 46.6833 124.066 46.8731 124.152 47.5383C123.624 48.2791 123.594 49.4284 123.297 50.3666C121.961 54.5907 122.465 59.8404 124.408 62.9667C125.005 63.9263 126.409 65.9845 128.341 65.1952C130.03 64.5052 129.653 62.3672 130.136 60.4812C130.245 60.0535 130.178 59.7389 130.392 59.4525V59.5384L131.931 62.6238C133.07 64.4624 135.092 66.3843 136.804 67.681C137.692 68.3535 138.392 69.5162 139.54 69.9095V69.8236H139.454C139.232 69.4761 138.884 69.3318 138.6 69.0523C137.931 68.3947 137.187 67.5772 136.633 66.8238C135.076 64.7033 133.699 62.3828 132.444 59.9668C131.845 58.8136 131.325 57.5405 130.82 56.3667C130.625 55.9142 130.627 55.2299 130.222 54.9951C129.669 55.8554 128.854 56.5512 128.426 57.5669C127.742 59.1905 127.654 61.1704 127.401 63.2237C127.251 63.2775 127.317 63.2405 127.229 63.3092C126.039 63.0213 125.62 61.7925 125.178 60.7382C124.058 58.0721 123.851 53.7789 124.835 50.7099C125.09 49.9157 126.242 47.4145 125.776 46.6814C125.553 45.9494 124.819 45.5259 124.408 44.9669C123.9 44.2753 123.392 43.365 123.04 42.5665C122.124 40.4877 121.696 38.1542 120.732 36.0529C120.271 35.0482 119.492 34.0317 118.851 33.1386C118.143 32.1496 117.349 31.4202 116.8 30.2239C116.604 29.7989 116.339 29.1184 116.628 28.6812C116.721 28.3864 116.851 28.263 117.142 28.1668C117.638 27.7838 119.019 28.2944 119.535 28.5097C120.906 29.0806 122.05 29.6244 123.212 30.3953C123.769 30.7661 124.333 31.4828 125.007 31.6814H125.776C126.979 31.9586 128.328 31.7673 129.452 32.1098C131.439 32.7155 133.22 33.6571 134.837 34.6812C139.766 37.8006 143.794 42.2412 146.55 47.5383C146.994 48.3909 147.186 49.205 147.576 50.1097C148.364 51.9342 149.356 53.8113 150.14 55.5954C150.923 57.3748 151.685 59.1714 152.791 60.6526C153.372 61.4312 155.618 61.849 156.638 62.2809C157.353 62.5841 158.525 62.8998 159.203 63.3092C160.497 64.092 161.751 65.0237 162.964 65.881C163.571 66.3094 165.436 67.2492 165.529 68.0236H165.528Z" fill="#FAFCFD"/>
<path fill-rule="evenodd" clip-rule="evenodd" d="M127.315 35.3671C126.688 35.3556 126.245 35.4358 125.776 35.5381V35.624H125.862C126.161 36.24 126.688 36.6363 127.058 37.1667C127.343 37.7669 127.628 38.3669 127.913 38.9668L127.999 38.8813C128.528 38.507 128.771 37.9087 128.768 36.9957C128.556 36.7719 128.524 36.4909 128.341 36.2239C128.096 35.8681 127.623 35.6664 127.315 35.3671Z" fill="#FAFCFD"/>
<path fill-rule="evenodd" clip-rule="evenodd" d="M163.521 92.7176C163.521 94.8766 165.223 96.3315 167.126 96.3315C169.029 96.3315 170.731 94.8766 170.731 92.7176C170.731 90.559 169.029 89.1042 167.126 89.1042C165.223 89.1042 163.522 90.559 163.522 92.7176H163.521ZM169.923 92.7176C169.923 94.3558 168.674 95.58 167.126 95.58C165.56 95.58 164.329 94.3558 164.329 92.7176C164.329 91.0795 165.559 89.8553 167.126 89.8553C168.674 89.8553 169.923 91.0795 169.923 92.7176ZM168.098 94.7797H168.905L167.723 92.9685C168.357 92.9009 168.837 92.5924 168.837 91.8409C168.837 91.0024 168.309 90.6556 167.29 90.6556H165.685V94.7797H166.377V92.9972H167.02L168.098 94.78V94.7797ZM166.377 92.419V91.2338H167.174C167.588 91.2338 168.088 91.3109 168.088 91.7928C168.088 92.3705 167.636 92.419 167.116 92.419H166.377Z" fill="#FFFCF7"/>
</svg>
