<svg width="85" height="97" viewBox="0 0 85 97" fill="none" xmlns="http://www.w3.org/2000/svg">
<g clip-path="url(#clip0_104_34)">
<path d="M83.4442 37.9854C81.9833 32.1313 79.2132 27.717 73.3125 27.717H65.7042V36.6971C65.7042 43.669 59.7846 49.542 53.0301 49.542H32.7667C27.2266 49.542 22.635 54.2783 22.635 59.8293V79.1156C22.635 84.6098 27.4163 87.8305 32.7667 89.4029C39.1797 91.2785 45.346 91.6195 53.0301 89.4029C58.1339 87.9252 63.1618 84.9508 63.1618 79.1156V71.4049H42.9174V68.8283H73.3125C79.2132 68.8283 81.3951 64.7172 83.4442 58.56C85.5692 52.2133 85.4743 46.1129 83.4442 37.9854ZM54.3013 76.5391C56.4074 76.5391 58.115 78.2631 58.115 80.385C58.115 82.5258 56.4074 84.2498 54.3013 84.2498C52.2143 84.2498 50.4877 82.5068 50.4877 80.385C50.5067 78.2441 52.2143 76.5391 54.3013 76.5391ZM31.837 47.0033H52.1004C57.7355 47.0033 62.2321 42.3617 62.2321 36.716V17.4107C62.2321 11.9166 57.6027 7.80547 52.1004 6.87715C45.308 5.75938 37.9275 5.81621 31.837 6.89609C23.2612 8.41172 21.7054 11.5756 21.7054 17.4297V25.1404H41.9877V27.717H14.0971C8.19642 27.717 3.0357 31.2598 1.42298 37.9854C-0.436394 45.6961 -0.512287 50.5082 1.42298 58.56C2.86495 64.5467 6.2991 68.8283 12.1998 68.8283H19.1629V59.583C19.1629 52.8953 24.9498 47.0033 31.837 47.0033ZM30.5658 19.9873C28.4598 19.9873 26.7522 18.2633 26.7522 16.1414C26.7712 14.0006 28.4598 12.2766 30.5658 12.2766C32.6529 12.2766 34.3795 14.0195 34.3795 16.1414C34.3795 18.2633 32.6719 19.9873 30.5658 19.9873Z" fill="#FFFCFC"/>
</g>
<defs>
<clipPath id="clip0_104_34">
<rect width="85" height="97" fill="white"/>
</clipPath>
</defs>
</svg>
