<svg width="89" height="89" viewBox="0 0 89 89" fill="none" xmlns="http://www.w3.org/2000/svg">
<path d="M10.7252 29.4465L28.3687 77.7707C16.027 71.791 7.52676 59.1363 7.52676 44.5C7.52676 39.1287 8.67402 34.0529 10.7252 29.4465V29.4465ZM69.4617 42.64C69.4617 38.0684 67.8277 34.9047 66.4197 32.4363C64.5424 29.3943 62.7867 26.8043 62.7867 23.7623C62.7867 20.3553 65.3594 17.1916 68.9924 17.1916C69.1488 17.1916 69.3053 17.209 69.4791 17.2264C62.891 11.1945 54.1301 7.50938 44.5 7.50938C31.5846 7.50938 20.2162 14.1322 13.5934 24.1795C14.4625 24.2143 15.2795 24.2316 15.9748 24.2316C19.8338 24.2316 25.8309 23.7623 25.8309 23.7623C27.8299 23.6406 28.0559 26.5783 26.0742 26.8043C26.0742 26.8043 24.0752 27.0303 21.8502 27.152L35.3219 67.202L43.4223 42.9355L37.6686 27.152C35.6695 27.0303 33.7922 26.8043 33.7922 26.8043C31.7932 26.6826 32.0365 23.6406 34.0182 23.7623C34.0182 23.7623 40.1195 24.2316 43.7525 24.2316C47.6115 24.2316 53.6086 23.7623 53.6086 23.7623C55.6076 23.6406 55.8336 26.5783 53.852 26.8043C53.852 26.8043 51.8529 27.0303 49.6279 27.152L62.9953 66.9064L66.6805 54.582C68.2449 49.4715 69.4617 45.8037 69.4617 42.64ZM45.1432 47.7332L34.0529 79.9783C37.373 80.9518 40.867 81.4906 44.5 81.4906C48.8109 81.4906 52.9307 80.7432 56.7723 79.3873C56.668 79.2309 56.5811 79.057 56.5115 78.8832L45.1432 47.7332ZM76.9537 26.7521C77.1102 27.9342 77.1971 29.1857 77.1971 30.559C77.1971 34.3137 76.5018 38.5203 74.3811 43.8047L63.0822 76.467C74.0855 70.0527 81.4732 58.1455 81.4732 44.5C81.4732 38.0684 79.8393 32.0191 76.9537 26.7521V26.7521ZM87.6094 44.5C87.6094 68.2797 68.2623 87.6094 44.5 87.6094C20.7203 87.6094 1.39062 68.2623 1.39062 44.5C1.39062 20.7203 20.7203 1.39062 44.5 1.39062C68.2623 1.39062 87.6094 20.7203 87.6094 44.5ZM85.6277 44.5C85.6277 21.8154 67.1672 3.37227 44.5 3.37227C21.8154 3.37227 3.37227 21.8154 3.37227 44.5C3.37227 67.1846 21.8328 85.6277 44.5 85.6277C67.1846 85.6277 85.6277 67.1846 85.6277 44.5Z" fill="#FFFEFE"/>
</svg>
